<svg xmlns="http://www.w3.org/2000/svg" fill="none" viewBox="0 0 142 33">
  <path fill="#fff" d="M.876 6.737v25.871H4.59V13.875h.24l7.63 18.696h3.083l7.63-18.684h.24v18.721h3.714V6.738h-4.738l-8.236 20.11h-.303L5.614 6.738H.876ZM40.861 33c4.232 0 7.226-2.084 8.085-5.242l-3.575-.645c-.682 1.832-2.325 2.767-4.472 2.767-3.234 0-5.407-2.097-5.508-5.836h13.795v-1.34c0-7.01-4.194-9.752-8.59-9.752-5.407 0-8.97 4.119-8.97 10.081 0 6.026 3.513 9.967 9.235 9.967Zm-5.457-11.786c.151-2.754 2.147-5.141 5.217-5.141 2.93 0 4.85 2.172 4.864 5.141H35.404Zm32.512-3.272c-.783-3.019-3.145-4.99-7.339-4.99-4.383 0-7.49 2.312-7.49 5.748 0 2.754 1.667 4.586 5.305 5.394l3.284.72c1.87.417 2.741 1.25 2.741 2.463 0 1.504-1.604 2.679-4.08 2.679-2.261 0-3.714-.973-4.169-2.88l-3.65.555C53.149 31.067 56.004 33 60.362 33c4.687 0 7.934-2.489 7.934-6 0-2.742-1.744-4.434-5.306-5.256l-3.082-.707c-2.135-.505-3.057-1.225-3.045-2.539-.012-1.49 1.605-2.552 3.752-2.552 2.35 0 3.436 1.301 3.878 2.603l3.424-.607Zm13.59-4.737h-3.98V8.556H73.75v4.65h-2.843v3.03h2.843v11.458c-.013 3.525 2.678 5.23 5.659 5.167 1.2-.013 2.008-.24 2.45-.404l-.682-3.12c-.252.05-.72.164-1.326.164-1.225 0-2.324-.404-2.324-2.59V16.237h3.979v-3.032ZM93.649 33c5.47 0 9.044-4.005 9.044-10.005 0-6.038-3.575-10.043-9.044-10.043-5.47 0-9.045 4.005-9.045 10.043 0 6 3.575 10.005 9.045 10.005Zm.012-3.17c-3.575 0-5.242-3.12-5.242-6.847 0-3.714 1.667-6.873 5.242-6.873 3.55 0 5.218 3.159 5.218 6.873 0 3.726-1.668 6.846-5.218 6.846Zm13.124-20.937h1.044V5.525h1.887c.075 0 .147 0 .219-.005l1.819 3.373h1.212l-1.949-3.562c1.099-.375 1.613-1.272 1.613-2.417 0-1.524-.91-2.645-2.931-2.645h-2.914v8.624Zm1.044-4.312V1.196h1.836c1.398 0 1.937.682 1.937 1.718s-.539 1.667-1.92 1.667h-1.853Zm10.482 1.668c0 1.213-.926 1.768-1.667 1.768-.826 0-1.415-.606-1.415-1.55V2.426h-.994v4.11c0 1.65.876 2.442 2.088 2.442.977 0 1.617-.522 1.921-1.179h.067v1.095h.994V2.425h-.994V6.25Zm7.395-2.375c-.311-.918-1.01-1.533-2.29-1.533-1.365 0-2.375.775-2.375 1.87 0 .892.53 1.49 1.718 1.768l1.078.253c.652.152.96.463.96.91 0 .555-.59 1.01-1.516 1.01-.813 0-1.322-.35-1.499-1.044l-.944.236c.232 1.099 1.137 1.684 2.46 1.684 1.503 0 2.526-.821 2.526-1.937 0-.901-.564-1.47-1.718-1.752l-.96-.236c-.766-.189-1.112-.446-1.112-.943 0-.556.59-.96 1.382-.96.867 0 1.225.48 1.397.927l.893-.253Zm6.195 0c-.311-.918-1.01-1.533-2.29-1.533-1.365 0-2.375.775-2.375 1.87 0 .892.53 1.49 1.718 1.768l1.078.253c.652.152.96.463.96.91 0 .555-.59 1.01-1.516 1.01-.813 0-1.322-.35-1.499-1.044l-.943.236c.231 1.099 1.137 1.684 2.459 1.684 1.503 0 2.526-.821 2.526-1.937 0-.901-.564-1.47-1.718-1.752l-.96-.236c-.766-.189-1.112-.446-1.112-.943 0-.556.59-.96 1.382-.96.867 0 1.225.48 1.398.927l.892-.253Zm1.614 5.019h.994V2.425h-.994v6.468Zm.505-7.546c.388 0 .708-.303.708-.673 0-.37-.32-.674-.708-.674-.387 0-.707.303-.707.674 0 .37.32.673.707.673Zm4.212 7.698c1.129 0 1.718-.607 1.92-1.028h.051v.876h.994V4.632c0-2.055-1.567-2.29-2.392-2.29-.977 0-2.089.336-2.594 1.515l.943.337c.219-.472.737-.977 1.685-.977.913 0 1.364.484 1.364 1.314v.034c0 .48-.489.437-1.668.589-1.2.156-2.509.421-2.509 1.903 0 1.264.977 1.988 2.206 1.988Zm.152-.893c-.792 0-1.364-.354-1.364-1.044 0-.758.69-.994 1.465-1.095.421-.05 1.549-.168 1.718-.37v.909c0 .808-.64 1.6-1.819 1.6Z"/>
</svg>
