<svg xmlns="http://www.w3.org/2000/svg" fill="none" viewBox="0 0 143 33">
  <path fill="#000" d="M.876 6.737v25.871h3.759V13.875h.243l7.721 18.696h3.12l7.72-18.684h.243v18.721h3.759V6.738h-4.794l-8.335 20.11h-.307L5.67 6.738H.876ZM41.34 33c4.282 0 7.312-2.084 8.181-5.242l-3.617-.645c-.69 1.832-2.353 2.767-4.526 2.767-3.273 0-5.471-2.097-5.574-5.836h13.96v-1.34c0-7.01-4.244-9.752-8.693-9.752-5.471 0-9.076 4.119-9.076 10.081 0 6.026 3.554 9.967 9.345 9.967Zm-5.523-11.786c.154-2.754 2.173-5.141 5.28-5.141 2.966 0 4.909 2.172 4.922 5.141H35.817Zm32.903-3.272c-.793-3.019-3.184-4.99-7.428-4.99-4.436 0-7.58 2.312-7.58 5.748 0 2.754 1.687 4.586 5.368 5.394l3.324.72c1.892.417 2.774 1.25 2.774 2.463 0 1.504-1.623 2.679-4.13 2.679-2.287 0-3.758-.973-4.218-2.88l-3.694.555c.64 3.436 3.528 5.369 7.938 5.369 4.743 0 8.029-2.489 8.029-6 0-2.742-1.764-4.434-5.37-5.256l-3.119-.707c-2.16-.505-3.093-1.225-3.08-2.539-.013-1.49 1.623-2.552 3.796-2.552 2.378 0 3.477 1.301 3.925 2.603l3.464-.607Zm13.751-4.737h-4.027V8.556h-3.822v4.65h-2.876v3.03h2.876v11.458c-.013 3.525 2.71 5.23 5.727 5.167 1.214-.013 2.033-.24 2.48-.404l-.69-3.12c-.256.05-.729.164-1.343.164-1.24 0-2.352-.404-2.352-2.59V16.237h4.027v-3.032ZM94.76 33c5.535 0 9.152-4.005 9.152-10.005 0-6.038-3.617-10.043-9.153-10.043-5.535 0-9.153 4.005-9.153 10.043 0 6 3.618 10.005 9.153 10.005Zm.012-3.17c-3.618 0-5.305-3.12-5.305-6.847 0-3.714 1.687-6.873 5.305-6.873 3.592 0 5.28 3.159 5.28 6.873 0 3.726-1.688 6.846-5.28 6.846Zm13.281-20.937h1.057V5.525h1.909c.076 0 .149 0 .221-.005l1.841 3.373h1.227l-1.973-3.562c1.113-.375 1.632-1.272 1.632-2.417 0-1.524-.92-2.645-2.965-2.645h-2.949v8.624Zm1.057-4.312V1.196h1.858c1.414 0 1.96.682 1.96 1.718s-.546 1.667-1.943 1.667h-1.875Zm10.607 1.668c0 1.213-.938 1.768-1.688 1.768-.835 0-1.431-.606-1.431-1.55V2.426h-1.006v4.11c0 1.65.886 2.442 2.114 2.442.988 0 1.636-.522 1.943-1.179h.068v1.095h1.005V2.425h-1.005V6.25Zm7.484-2.375c-.316-.918-1.023-1.533-2.319-1.533-1.38 0-2.403.775-2.403 1.87 0 .892.537 1.49 1.739 1.768l1.091.253c.66.152.971.463.971.91 0 .555-.596 1.01-1.534 1.01-.822 0-1.338-.35-1.517-1.044l-.954.236c.234 1.099 1.15 1.684 2.488 1.684 1.521 0 2.557-.821 2.557-1.937 0-.901-.571-1.47-1.739-1.752l-.971-.236c-.776-.189-1.125-.446-1.125-.943 0-.556.596-.96 1.397-.96.878 0 1.24.48 1.415.927l.904-.253Zm6.269 0c-.315-.918-1.023-1.533-2.318-1.533-1.381 0-2.404.775-2.404 1.87 0 .892.537 1.49 1.739 1.768l1.091.253c.66.152.971.463.971.91 0 .555-.596 1.01-1.534 1.01-.822 0-1.338-.35-1.517-1.044l-.954.236c.234 1.099 1.15 1.684 2.488 1.684 1.522 0 2.557-.821 2.557-1.937 0-.901-.571-1.47-1.738-1.752l-.972-.236c-.775-.189-1.125-.446-1.125-.943 0-.556.597-.96 1.398-.96.878 0 1.24.48 1.414.927l.904-.253Zm1.633 5.019h1.006V2.425h-1.006v6.468Zm.511-7.546c.392 0 .716-.303.716-.673 0-.37-.324-.674-.716-.674-.392 0-.716.303-.716.674 0 .37.324.673.716.673Zm4.263 7.698c1.142 0 1.738-.607 1.943-1.028h.051v.876h1.005V4.632c0-2.055-1.585-2.29-2.42-2.29-.989 0-2.113.336-2.625 1.515l.955.337c.221-.472.745-.977 1.704-.977.925 0 1.381.484 1.381 1.314v.034c0 .48-.494.437-1.688.589-1.214.156-2.539.421-2.539 1.903 0 1.264.988 1.988 2.233 1.988Zm.153-.893c-.801 0-1.381-.354-1.381-1.044 0-.758.699-.994 1.483-1.095.426-.05 1.568-.168 1.739-.37v.909c0 .808-.648 1.6-1.841 1.6Z"/>
</svg>
