<svg xmlns="http://www.w3.org/2000/svg" fill="none" viewBox="0 0 22 19">
  <path fill="#000" d="M20.3 9.786c2.267-2.243 2.267-5.884 0-8.104-2.269-2.243-5.951-2.243-8.22 0l-1.1 1.11-1.1-1.088C7.612-.56 3.93-.56 1.684 1.682A5.657 5.657 0 0 0 0 5.745a5.75 5.75 0 0 0 1.684 4.063L10.98 19l9.32-9.214ZM1.436 5.745c0-1.155.45-2.22 1.28-3.02A4.33 4.33 0 0 1 5.771 1.46c1.1 0 2.2.422 3.054 1.265l2.155 2.11 2.156-2.132c1.684-1.665 4.446-1.665 6.108 0a4.23 4.23 0 0 1 1.28 3.02c0 1.154-.45 2.22-1.28 3.02l-8.264 8.192-8.263-8.17c-.808-.822-1.28-1.888-1.28-3.02Z"/>
</svg>
