<svg xmlns="http://www.w3.org/2000/svg" xml:space="preserve" viewBox="0 0 64 64">
  <path d="M32 14c-7.031 0-11.229 4.395-11.229 11.756 0 4.189 5.566 13.867 11.227 21.594 5.627-7.753 11.231-17.311 11.231-21.594C43.229 18.395 39.031 14 32 14zm-.012 16.793a4.932 4.932 0 1 1 0-9.864 4.932 4.932 0 0 1 0 9.864z"/>
  <path d="M32 0C14.327 0 0 14.327 0 32s14.327 32 32 32c17.673 0 32-14.327 32-32S49.673 0 32 0zm1.874 51.54L32 54l-1.863-2.46c-1.371-1.792-13.366-17.806-13.366-25.784C16.771 16.185 22.745 10 32 10c9.255 0 15.229 6.185 15.229 15.756 0 7.966-11.996 23.98-13.355 25.784z"/>
</svg>
