<?xml version="1.0" standalone="no"?>
<!DOCTYPE svg PUBLIC "-//W3C//DTD SVG 20010904//EN"
 "http://www.w3.org/TR/2001/REC-SVG-20010904/DTD/svg10.dtd">
<svg version="1.0" xmlns="http://www.w3.org/2000/svg"
 width="512.000000pt" height="512.000000pt" viewBox="0 0 512.000000 512.000000"
 preserveAspectRatio="xMidYMid meet">
<metadata>
Created by potrace 1.14, written by Peter Selinger 2001-2017
</metadata>
<g transform="translate(0.000000,512.000000) scale(0.100000,-0.100000)"
fill="#000000" stroke="none">
<path d="M2497 4634 c-1 -1 -40 -4 -87 -8 -729 -53 -1355 -575 -1550 -1290
-25 -90 -24 -88 -44 -216 -19 -130 -14 -414 9 -530 3 -14 8 -38 11 -55 19
-115 99 -337 167 -465 109 -207 177 -288 593 -702 681 -677 869 -860 901 -874
41 -18 85 -18 126 0 18 7 160 140 317 295 941 930 982 973 1082 1123 106 158
211 390 243 533 45 205 46 214 50 410 6 295 -49 544 -179 806 -229 460 -634
786 -1142 919 -42 11 -98 23 -123 26 -25 3 -49 8 -52 10 -12 7 -314 24 -322
18z m350 -343 c582 -121 1013 -559 1129 -1146 26 -132 24 -406 -4 -535 -28
-127 -81 -278 -134 -379 -99 -186 -143 -236 -721 -811 -301 -300 -552 -545
-557 -545 -5 0 -256 245 -557 545 -578 576 -626 630 -720 811 -117 226 -164
432 -158 694 4 220 52 412 150 608 61 120 113 196 205 300 237 267 535 423
920 480 14 2 97 3 185 2 117 -2 187 -8 262 -24z"/>
<path d="M2455 3674 c-5 -1 -44 -10 -84 -19 -41 -10 -82 -21 -90 -25 -9 -5
-31 -14 -50 -21 -57 -21 -173 -102 -234 -163 -84 -85 -127 -150 -188 -291 -38
-90 -58 -291 -38 -402 61 -347 315 -601 662 -662 111 -20 315 0 402 38 11 5
35 15 54 22 57 21 173 102 234 163 66 66 125 150 157 221 12 28 26 59 31 70
57 129 60 355 7 530 -15 52 -81 178 -110 214 -13 15 -34 42 -47 59 -38 51
-151 138 -232 180 -76 39 -156 66 -243 81 -45 8 -205 12 -231 5z m219 -330
c173 -42 317 -190 355 -364 15 -69 7 -197 -18 -261 -52 -137 -153 -238 -289
-290 -65 -25 -193 -33 -262 -18 -261 58 -431 329 -365 584 68 258 323 412 579
349z"/>
</g>
</svg>
